<?xml version="1.0" encoding="utf-8"?>
<!-- Generator: Adobe Illustrator 26.0.2, SVG Export Plug-In . SVG Version: 6.00 Build 0)  -->
<svg version="1.1" id="Layer_1" xmlns="http://www.w3.org/2000/svg" xmlns:xlink="http://www.w3.org/1999/xlink" x="0px" y="0px"
	 viewBox="0 0 2000 2000" style="enable-background:new 0 0 2000 2000;" xml:space="preserve">
<path d="M518.5,1557.3l-1.5-12.4c-1-8.7-1-17.5,0-26.1c0.9-7.8,2.7-15,5-21.5c-2.3,1-5.3,2.2-9.1,3.7c-4.9,1.9-11.5,4.4-19.5,7.1
	l-17.4,5.9l2.4-18.2c2.2-16.6,5-33.5,8.4-50.2c6.2-30.7,12.8-53.2,19.2-75c17.3-59,24.7-84.2,28-95.5c2.8-9.5,2.8-9.5,3.2-10.8
	c9.8-29,21.1-57.9,33.9-86.6c-6,2.8-12.5,4.7-19.4,5.4l-12.1,1.3l-0.5-12.2c-0.5-12.9,0.4-25.9,2.7-38.6c8.7-47.7,36-82.7,58-110.8
	c7.1-9.1,11.9-14.5,16.1-19.2c5.4-6,10-11.2,18.5-22.9c5.7-7.9,9-12.9,12.8-18.7c4.4-6.7,9.3-14.3,18.9-27.5
	c4.7-6.6,8.1-11,10.5-14.2c4.5-5.9,5.5-7.3,7.4-11.2c7.5-15.6,7.6-29.7,7.7-41.1l0-4.2c0.4-21,7.2-43,20.8-86.8
	c12.5-40.3,35.4-81.5,68.2-122.5c-6.8-1.4-13.7-3.1-20.4-4.9c-14.3-3.9-23.9-7.4-33.1-10.8c-5.9-2.1-11.6-4.3-18.6-6.4
	c-23.3-7.3-41.8-9.6-58.1-11.6c-18.7-2.3-27.5-1.5-76.3,2.7c-16.7,1.5-38,3.3-65.9,5.6c-33.3,2.7-57.8,4.5-73.1,5.4
	c-13.5,0.8-22,1.3-26.6-1.9c-8.6-0.7-17.3-3-25.5-8.6c-4.8-3.3-20.3-15.4-18.8-32.5c1.3-15.1,14.8-23.5,25.6-30.3
	c15.6-9.7,30-13.8,39.5-16c16.1-3.8,26.8-4.3,62.5-5.9l41.5-2c42.6-2.1,78.5-8.5,99.9-12.4c61.4-11,89.4-15.6,109.9-19
	c23.8-3.9,38.2-6.3,83.7-15.3c47.1-9.3,75.2-15.4,95.7-19.8c29.3-6.3,44.1-9.5,77.8-14.5c71.2-10.4,120.3-12.9,143.2-13.4
	c24.9-0.6,75.5-0.6,135.7,5.8l0,0c90.5,9.6,214.6,31.8,291.4,82.9c5,3.3,14.3,9.5,22.1,20.7c4.1,5.9,5.7,10.3,7,13.8
	c1.1,3,1.9,5.3,4.5,9.1c3.1,4.7,5.3,6.4,8.1,8.6c3.4,2.6,7.7,5.9,12.3,13.2c8.5,13.4,9.9,26.9,10.6,34.1c1.1,11.2,0.1,22.4-2.9,33.3
	l-5.6,20.4l-14-15.9c-3.6-4.1-7.7-7.3-12.2-9.6c-15.5-7.8-33.5-3.2-46.4,2.5c5.3,3.4,10.2,7.2,14.7,11.5
	c30.7,28.6,37.4,68.1,39.7,99.3c5,66.5,8.3,274.9,5.1,544.3l-0.3,23.8l-18.4-15.1c-19.4-15.9-37.3-33.7-53.4-52.8
	c-14.5-17.2-27.5-35.6-39-55c-1.8,4.3-3.9,7.1-6.7,9.2c-11.7,9-36.5-2.5-36.8-2.6c-17.4-8.7-46.1-75.3-71.5-142.9
	c-2.3,2.5-6.3,5.6-12.7,7c-9.1,2.1-16.5-1.6-18.9-2.7c-31.4-15.4-47.3-42-48-43.1c-39.6-67.3-57.6-97.8-63.4-112.3
	c-16.9-41.9-32.7-85-47.1-128.5c-2.4,4.1-4.9,8.1-7.4,12c-14.3,22.2-27.9,37.6-37.8,48.9c-7.6,8.6-20.2,23-38.8,40.1
	c-7.6,7-13.8,12.3-19.3,16.9c-11.2,9.5-18,15.3-25.3,26.5c-2.9,4.4-5.4,10.2-9.5,19.8l-3.1,7.2c-6,13.8-9.7,23.9-12.4,31.2l-1.7,4.6
	c-9.3,24.6-19.9,42.3-32.1,62.6c-14.3,23.8-26.1,38.1-43.9,59.7c-4.4,5.3-9.1,11.1-14.5,17.6c-24.4,30-42.6,54.5-79,103.4
	c-9,12-28.8,39.3-68.4,93.7l-21.3,29.3c-19.8,27.2-20.2,27.7-23.1,31.2c-21.6,26.1-54.1,65.6-109.2,99.6
	c-47.3,29.2-91.2,42-113.2,47c-2.9,0.7-5.3,1.2-7,1.5L518.5,1557.3z M610.5,1399.1l-47.4,69.2c-1.3,1.9-3.2,4.7-5.3,8.3l-0.5,0.8
	c-6.9,11.4-15.4,25.6-17.6,44c-0.3,2.6-0.5,5.3-0.6,7.9c22.1-5.6,59.6-17.8,99.7-42.6c51.9-32,83-69.7,103.6-94.7
	c2.4-2.9,2.8-3.5,22.2-30.1l21.3-29.3c39.6-54.5,59.5-81.8,68.5-93.8c36.6-49.2,55-73.9,79.7-104.2c5.4-6.6,10.2-12.4,14.6-17.7
	c17.8-21.5,28.5-34.5,41.9-56.9c11.7-19.4,21.8-36.2,30.4-59l1.6-4.4c2.6-7.2,6.7-18,12.9-32.4l3.1-7.2c4.6-10.7,7.4-17.2,11.3-23.2
	c9.1-14,17.7-21.3,29.7-31.5c5.3-4.5,11.3-9.6,18.6-16.3c17.7-16.3,29.9-30.2,37.2-38.4c9.9-11.3,22.3-25.4,35.7-46.1
	c7-10.8,13.3-22.1,19-33.7l12.5-25.7l8.6,27.2c16.4,51.6,34.8,102.9,54.8,152.4c5.2,13,25.3,47,61.6,108.7
	c0.4,0.7,13.6,22.5,38.6,34.7c0.8,0.4,2.6,1.3,3.8,1c0.8-0.2,1.1-0.4,1.1-0.4c0.3-0.7,0.2-3.5,0.1-5c-0.3-8-0.5-16.8-0.6-28.2
	l-1-69.3l23.2,65.3c42.1,118.6,69.1,170,77,175.5c2.1,0.9,8.4,2.8,12.4,3.4c0.3-0.7,0.6-1.7,1-2.9c1.9-6.5,2.8-13.4,2.7-20.6
	l-0.9-51.4l22.6,46.2c13.9,28.5,31.3,55.2,51.7,79.4c10,11.8,20.7,23.1,32,33.7c2.7-254.3-0.7-455.2-5.3-517.6
	c-2-27.1-7.6-61.1-32.5-84.3c-7.8-7.2-17.1-13-27.5-17.2l-19.4-7.7l16.9-12.2c4.9-3.5,48.5-33.6,87.4-14c0.7,0.3,1.3,0.7,2,1
	c0-2.2-0.1-4.4-0.3-6.6c-0.6-6.1-1.5-15.3-7.1-24.1c-2.5-3.9-4.2-5.2-7-7.4c-3.5-2.7-8-6.2-13.2-14c-4-6.1-5.6-10.4-6.9-13.9
	c-1.1-3-1.9-5.2-4.4-8.7c-5.3-7.6-11.7-11.9-15.9-14.7c-72.9-48.5-193.1-69.9-281.1-79.2c-59-6.3-108.5-6.2-132.8-5.6
	c-22.4,0.5-70.4,3-140.5,13.2c-32.9,4.8-47.4,7.9-76.2,14.2c-20.6,4.5-48.8,10.6-96.1,19.9c-45.8,9.1-60.3,11.5-84.4,15.4
	c-20.4,3.3-48.3,7.9-109,18.8c-22.6,4.1-59.3,10.7-103.4,12.8l-41.6,2c-34.9,1.6-44.3,2-58.3,5.3c-7.9,1.9-20,5.2-32.7,13.1
	c-6.2,3.8-14.6,9.1-14.9,12.8c-0.3,3.3,4.4,8.6,9,11.8c9.4,6.5,20.8,5.2,35.2,3.6l4-0.4c5.6-0.6,9,0.7,11.2,2.6
	c13.2-0.9,32.3-2.3,60-4.6c27.8-2.3,49-4.1,65.7-5.6c49.6-4.3,59.9-5.2,81-2.6c17.3,2.1,36.9,4.5,62.2,12.5
	c7.3,2.3,13.4,4.5,19.6,6.8c8.8,3.2,17.9,6.6,31.3,10.2c12.3,3.3,24.9,6,37.4,8l20.3,3.2l-13.4,15.6c-37,43.1-63.4,87.9-76.3,129.6
	c-12.9,41.7-19.4,62.7-19.8,80.4l0,3.9c-0.1,12.2-0.2,30.7-10,50.9c-2.9,5.9-5,8.8-9.8,15.1c-2.4,3.2-5.7,7.5-10.3,13.9
	c-9.2,12.7-13.8,19.8-18.2,26.5c-3.8,5.9-7.4,11.4-13.5,19.7c-9.1,12.6-14.4,18.4-19.9,24.7c-4.2,4.7-8.5,9.6-15.2,18.1
	c-21.5,27.5-45.8,58.6-53.5,100.8c-1.1,6.3-1.9,12.6-2.2,19c3.3-1.7,5.5-3.5,11.2-8.4l3.4-2.9c4.2-3.6,10.3-8.8,18.1-14.9l40.3-31.7
	l-23,45.8c-20.9,41.7-38.8,84.4-53.2,127.1c-0.4,1.2-0.4,1.2-2.9,9.9c-3.3,11.3-10.7,36.5-28,95.5c-6.6,22.3-12.7,43.4-18.8,73.1
	c-2,9.9-3.8,19.9-5.4,29.8c0.3-0.1,0.5-0.2,0.8-0.3c7-2.7,11.9-4.9,14.5-6.3c3.7-2.1,6.4-4,12.6-8.7c4.9-3.6,9.8-7.6,14.7-11.6
	L610.5,1399.1z"/>
</svg>
