<svg width="580" height="162" viewBox="0 0 580 162" fill="none" xmlns="http://www.w3.org/2000/svg">
<g class="logoanimrunner">
<path d="M0.653793 161.12C20.0548 150.068 34.4328 142.879 61.9288 132.09C93.1118 119.853 127.253 107.257 180.805 94.9915C231.297 83.4275 277.294 75.5235 324.754 71.0195C350.357 68.5895 385.071 66.4185 414.772 65.6945C439.372 65.0955 477.395 64.9275 499.393 65.4345C514.724 65.7875 572.371 69.3135 579.154 71.7025C580.719 72.2545 522.46 77.3225 493.767 80.8425C471.225 83.6075 440.298 88.0355 419.852 91.3755C386.544 96.8165 351.08 104.055 318.259 111.384C294.574 116.673 266.581 123.958 240.275 132.447C209.628 142.337 189.078 150.376 166.994 160.585C165.971 161.014 1.46579 161.271 0.653793 161.12Z" fill="#FFEE00"/>
</g>
<path fill-rule="evenodd" clip-rule="evenodd" d="M16.7012 54.7617H28.3092L36.1512 24.5377H36.2702L42.4762 54.7617H47.1202L61.9862 24.5377H62.1052L61.2882 54.7617H72.9552L73.2772 2.25272H61.6692L48.2262 30.3177L42.9182 2.25272H31.4292L16.7012 54.7617Z" fill="#231F20"/>
<path fill-rule="evenodd" clip-rule="evenodd" d="M112.249 2.2523L108.506 29.8993C107.582 36.7243 106.157 44.1763 98.656 44.1763C91.156 44.1763 91.748 36.7243 92.671 29.8993L96.415 2.2523H84.747L80.749 31.7803C79.835 38.5353 79.168 45.2203 82.944 50.3043C86.11 54.6223 91.796 56.1543 97.035 56.1543C102.273 56.1543 108.374 54.6223 112.709 50.3043C117.862 45.2203 119.005 38.5353 119.919 31.7803L123.916 2.2523H112.249Z" fill="#231F20"/>
<path fill-rule="evenodd" clip-rule="evenodd" d="M158.539 2.2523L154.796 29.8993C153.872 36.7243 152.447 44.1763 144.946 44.1763C137.446 44.1763 138.038 36.7243 138.961 29.8993L142.705 2.2523H131.037L127.039 31.7803C126.125 38.5353 125.458 45.2203 129.234 50.3043C132.4 54.6223 138.086 56.1543 143.325 56.1543C148.563 56.1543 154.664 54.6223 158.998 50.3043C164.152 45.2203 165.294 38.5353 166.209 31.7803L170.206 2.2523H158.539Z" fill="#231F20"/>
<path fill-rule="evenodd" clip-rule="evenodd" d="M193.858 13.8127H203.502L205.066 2.25272H174.111L172.547 13.8127H182.191L176.647 54.7617H188.315L193.858 13.8127Z" fill="#231F20"/>
<path fill-rule="evenodd" clip-rule="evenodd" d="M225.577 13.8127H235.221L236.785 2.25272H205.83L204.265 13.8127H213.909L208.366 54.7617H220.033L225.577 13.8127Z" fill="#231F20"/>
<path fill-rule="evenodd" clip-rule="evenodd" d="M263.799 0.511417C250.882 0.511417 237.467 11.6544 235.318 27.5324C233.018 44.5244 241.813 56.5034 256.219 56.5034C270.625 56.5034 282.664 44.5244 284.965 27.5324C287.114 11.6544 276.717 0.511417 263.799 0.511417ZM262.008 13.7434C268.973 13.7434 273.792 20.3594 272.811 27.6014C271.586 36.6554 264.975 43.2714 258.011 43.2714C251.046 43.2714 246.227 36.6554 247.452 27.6014C248.433 20.3594 255.043 13.7434 262.008 13.7434Z" fill="#231F20"/>
<path fill-rule="evenodd" clip-rule="evenodd" d="M302.707 22.5177L305.45 2.25272H293.782L286.674 54.7617H298.342L301.255 33.2427H318.102L315.188 54.7617H326.856L333.965 2.25272H322.297L319.554 22.5177H302.707Z" fill="#231F20"/>
<path fill-rule="evenodd" clip-rule="evenodd" d="M363.193 45.6387L364.875 54.7617H377.316L367.518 2.25272H354.779L330.407 54.7617H342.79L347.12 45.6387H363.193ZM361.452 35.1927H351.749L358.833 18.4787H358.952L361.452 35.1927Z" fill="#231F20"/>
<path fill-rule="evenodd" clip-rule="evenodd" d="M415.293 2.2523L411.55 29.8993C410.626 36.7243 409.2 44.1763 401.7 44.1763C394.199 44.1763 394.791 36.7243 395.715 29.8993L399.458 2.2523H387.79L383.793 31.7803C382.879 38.5353 382.212 45.2203 385.988 50.3043C389.154 54.6223 394.84 56.1543 400.078 56.1543C405.316 56.1543 411.417 54.6223 415.752 50.3043C420.905 45.2203 422.048 38.5353 422.963 31.7803L426.96 2.2523H415.293Z" fill="#231F20"/>
<path fill-rule="evenodd" clip-rule="evenodd" d="M443.173 23.9107H443.054L445.986 2.25272H434.319L427.21 54.7617H438.878L441.96 31.9897H442.079L454.058 54.7617H469.178L453.454 27.1147L474.679 2.25272H460.213L443.173 23.9107Z" fill="#231F20"/>
<path fill-rule="evenodd" clip-rule="evenodd" d="M501.055 45.6387L502.737 54.7617H515.178L505.38 2.25272H492.641L468.27 54.7617H480.652L484.982 45.6387H501.055ZM499.314 35.1927H489.611L496.695 18.4787H496.814L499.314 35.1927Z" fill="#231F20"/>
<path fill-rule="evenodd" clip-rule="evenodd" d="M537.779 13.8127H547.423L548.987 2.25272H518.033L516.467 13.8127H526.111L520.568 54.7617H532.235L537.779 13.8127Z" fill="#231F20"/>
<path fill-rule="evenodd" clip-rule="evenodd" d="M564.781 23.0674C570.985 23.0674 575.96 18.0924 575.96 11.8894C575.96 5.71338 570.985 0.739384 564.781 0.739384C558.549 0.739384 553.602 5.71338 553.602 11.8894C553.602 18.0924 558.549 23.0674 564.781 23.0674ZM564.781 20.1504C559.921 20.1504 556.518 16.8634 556.518 11.8894C556.518 6.91438 559.921 3.65538 564.781 3.65538C569.555 3.65538 573.044 6.91438 573.044 11.8894C573.044 16.8634 569.555 20.1504 564.781 20.1504ZM567.154 12.7754C568.64 12.6324 569.784 11.6034 569.784 9.60138C569.784 6.85738 568.298 6.02838 565.81 6.02838H560.149V17.7214H562.608V12.7754H564.495L567.096 17.7214H569.984L567.154 12.7754ZM562.608 10.5454V8.25738H565.267C566.496 8.25738 567.554 8.25738 567.554 9.28738C567.554 10.5454 566.496 10.5454 565.267 10.5454H562.608Z" fill="#231F20"/>
</svg>
