<?xml version="1.0" encoding="utf-8"?>
<!-- Generator: Adobe Illustrator 26.0.2, SVG Export Plug-In . SVG Version: 6.00 Build 0)  -->
<svg version="1.1" id="Layer_1" xmlns="http://www.w3.org/2000/svg" xmlns:xlink="http://www.w3.org/1999/xlink" x="0px" y="0px"
	 viewBox="0 0 2000 2000" style="enable-background:new 0 0 2000 2000;" xml:space="preserve">
<path d="M1417.9,1898.1l-9.3-35.1c-5.9-22-12.1-44.7-18.5-67.4c-5.7-20-11-33.9-18.4-53.1c-9.3-24.1-20.8-54.1-38.9-111.2
	c-29.6-93.3-33.6-125.2-35.7-142.3c-0.9-7.5-1.3-10.6-3.4-15.1c-21.6-46.4-53.5-85.3-72.5-108.5c-4.8-5.9-8.8-10.7-11.5-14.4
	c-8.8-11.8-15.5-18.8-24.8-28.6c-9.4-9.8-21-22-39-43.6c-19.9-23.9-35.5-42.7-54.6-70c-49.3-70.5-62.2-90.8-62.8-91.6l-1.3-2
	c-10.3-16.3-17.1-27-30.4-32.3c-9.5-3.8-19.9-3.7-40.8,0.6c-34.5,7-59.8,17.4-74.9,23.7l-2.4,1c-27.8,11.4-39.9,14.9-52.7,18.5
	c-12.2,3.4-24.8,7-53.8,18.7c-52.3,21.1-81.1,32.7-89.4,37.9l-4.9,3.1c-15.3,9.8-32.7,21-56.3,18.9c-20.8-1.9-35.2-13.3-40.5-18.2
	c-5.8-5.3-24.5-24.8-22.2-51.6c1.1-13.4,7.2-23.6,15.9-34.8c21.7-27.8,46-43.4,57.6-50.9l1-0.6c13-8.4,25.6-18.2,37.9-27.7
	c10.5-8.2,21.4-16.7,32.8-24.4c17.2-11.7,34.1-25.1,50.4-38c29.4-23.3,59.9-47.4,94.6-64.2c5.2-2.5,16.5-8,24.1-19.6
	c5.5-8.5,8.3-19.4,8.3-32.5c-0.1-28.2-13.7-50.5-24.6-68.4c-1.5-2.4-2.9-4.7-4.2-6.9c-4.7-8-13.7-35.3-41.4-120.1
	c-12.7-38.9-18.4-65.1-23-86.2c-6-27.5-10-45.7-25.2-72.5c-2.7-4.7-4.2-6.8-39.9-56.4c-53.5-74.3-81-112.4-82.7-114.7
	c-41.4-55.9-99.4-118.4-172.5-185.8l-14.7-13.5l19.1-5.8c13.9-4.2,28.2-7.2,42.5-8.9c28.8-3.4,58-1.6,86.7,5.3l0,0
	c38.4,9.3,76.8,20.8,114.3,34.1c61,21.6,105,43,151.7,65.7l4.9,2.4c53.7,26.1,89.2,43.3,136.3,73.3c2.1,1.3,50.9,32.6,109.7,87.4
	c16.7,15.5,35.5,34.6,48.3,64.7c4.5,10.5,10.3,27.8,12.7,50.5c1.1,10.8,0.8,17.3,0.5,25.7c-0.3,6.2-0.6,13.3-0.4,24.4
	c0.3,19,0.4,31.6,3.2,47.1c4,22.3,12.2,44.3,23.8,63.6c9.7,16.1,15.1,25,26.4,31.5c13.1,7.6,27.5,8.2,37,8.6
	c15.9,0.7,27.9-2.1,31.9-3c29.2-6.5,70.4-0.3,126.7,18.8l10.7,3.6l-3.5,10.8c-4.3,13-9.7,25.5-16,37.3c-13.8,25.7-32.7,61-66.5,82
	l-0.9,0.6c-4.3,2.7-10.2,6.3-13.3,13c-3,6.6-2.1,13.6-0.8,20.2c6,32.8,17.4,55.8,17.6,56.1c13.2,26.3,24.7,49.1,48.5,73.1
	c14.9,14.9,27.7,22.5,40.2,29.8c7.5,4.4,15.2,8.9,22.9,14.8c12.1,9.3,48.9,37.6,68.4,145.5c19.5,107.3,13.6,241.4-16.9,387.7
	c-15.5,74-40.2,154.2-88.3,286.1L1417.9,1898.1z M981.3,1057.4c8.4,0,16,1.3,23.8,4.4c20.2,8.1,30,23.5,41.3,41.3l1.3,2
	c0.1,0.2,13.3,20.9,62.2,90.8c18.5,26.5,33.9,45,53.5,68.5c17.5,21,28.8,32.9,37.9,42.4c9.5,9.9,16.9,17.7,26.6,30.6
	c2.6,3.5,6.4,8,10.9,13.6c19.7,24.1,52.8,64.4,75.6,113.4c3.6,7.7,4.3,13.4,5.4,21.9c2,16.4,5.8,46.9,34.9,138.2
	c17.9,56.4,29.3,86.1,38.5,109.9c7.3,19.1,13.1,34.1,19,55.1c3.1,10.9,6.1,21.9,9.1,32.7c39.7-110.9,61.2-182.6,75.1-248.9
	c30-143.5,35.8-274.6,16.8-379c-18-99.2-49.5-123.5-59.9-131.5c-6.5-5-13.3-9-20.5-13.2c-13-7.7-27.8-16.3-44.8-33.4
	c-26.4-26.5-39.2-52-52.8-78.9c-0.5-1-13-26-19.6-62.2c-1.3-7-3.7-20.1,2.5-33.8c6-13.1,16.5-19.5,22.1-23l0.8-0.5
	c28.6-17.8,45.8-49.9,58.4-73.4c3.9-7.3,7.5-15,10.5-22.9c-45.9-14.7-80.4-19.6-102.7-14.6c-5.2,1.2-19.5,4.5-38.5,3.6
	c-11-0.5-29.5-1.3-47.5-11.7c-16.3-9.5-23.9-22-34.4-39.4c-13.1-21.7-22.4-46.4-26.8-71.5c-3.1-17.4-3.3-31.4-3.5-50.8
	c-0.2-11.7,0.2-19.5,0.4-25.7c0.3-8,0.6-13.2-0.4-22.2c-2.1-20-7.1-34.9-11-44c-11-25.9-27.2-42.3-42.9-56.9
	c-57.1-53.2-105.9-84.5-106.4-84.8c-45.9-29.2-81-46.2-134-72l-4.9-2.4c-46-22.4-89.5-43.5-149.3-64.7c-36.7-13-74.4-24.3-112-33.4
	c-26.1-6.3-52.6-7.9-78.8-4.8c-6.3,0.7-12.5,1.7-18.7,3c67,63,120.7,121.7,160,174.7c1.8,2.4,28.1,39,82.8,115
	c37.1,51.5,37.8,52.6,41.2,58.4c17,29.8,21.4,50.4,27.7,79c4.5,20.6,10,46.2,22.2,83.6c21.6,66.2,35.8,109.7,39.5,115.9
	c1.3,2.1,2.6,4.3,4,6.6c11.7,19.3,27.8,45.7,28,80.2c0.1,17.6-4,32.8-12,45.1c-11.1,17-27,24.6-32.9,27.5
	c-32.9,15.9-61,38.1-90.8,61.7c-16.6,13.2-33.8,26.8-51.7,39c-10.8,7.4-21.4,15.6-31.6,23.6c-12.6,9.8-25.7,20-39.5,28.9l-1,0.6
	c-10.6,6.8-32.7,21-51.9,45.8c-7.6,9.8-10.5,15.7-11.1,22.7c-1.4,16.8,12.2,30.3,14.9,32.8c3.5,3.3,13.3,11,27.1,12.2
	c15.8,1.5,28.5-6.7,41.9-15.3l5-3.2c10-6.3,36-16.8,93-39.8c30.1-12.2,43.4-15.9,56.1-19.5c12.1-3.4,23.6-6.7,50.2-17.6l2.4-1
	c15.9-6.6,42.5-17.6,79.1-25C962.6,1058.9,972.3,1057.4,981.3,1057.4z"/>
</svg>
