<?xml version="1.0" encoding="utf-8"?>
<!-- Generator: Adobe Illustrator 26.0.2, SVG Export Plug-In . SVG Version: 6.00 Build 0)  -->
<svg version="1.1" id="Layer_1" xmlns="http://www.w3.org/2000/svg" xmlns:xlink="http://www.w3.org/1999/xlink" x="0px" y="0px"
	 viewBox="0 0 2000 2000" style="enable-background:new 0 0 2000 2000;" xml:space="preserve">
<path d="M1099.4,1722.3c-63.3,0-124.5-7.8-188-15.9c-15.1-1.9-30.3-3.9-45.8-5.7c-84.2-10.1-161.7-8.8-236.9,4.1
	c-32.2,5.5-65.4,11.2-103,14.1c-26.5,2-53.8,2.5-81.1,1.3l-21.7-0.9l13.1-17.4c5.9-7.8,12.4-14.8,19.4-20.8c2.3-2,4.1-3.3,5.6-4.5
	c2.5-1.9,3.3-2.6,4.8-4.5c1.9-2.5,2.5-4.2,3.6-7c1.1-2.9,2.4-6.6,5.3-11.2c5.2-8.2,11.2-13,15.2-16.2c12.8-10.1,25.9-13.5,38.3-16.2
	c19.9-4.2,29.9-6.3,49.9-8.4c11-1.2,29.9-4.7,67.7-11.8c12.8-2.4,50.6-9.5,91.3-20.8c34-9.4,68.1-21.2,101.6-35
	c-8.9-10.1-17.6-20.5-25.9-31.1c-39.5-50.5-67.3-108.4-94.1-164.4c-14.5-30.4-29.6-61.8-46.2-91.4c-18.2-32.3-40-61.2-61.1-89.2
	c-33-43.8-67.2-89-87.2-147.2l-20.3-58.8l39.9,47.8c3,3.6,6.3,7.1,9.8,10.4c6.9,6.5,9.3,7.9,9.4,8c1.2,0.7,6.9,3.4,12.2,5.8
	c-7.9-12.2-15.5-24.6-22.7-37c-33-56.9-44.5-94.5-57.9-138.1c-1.9-6-3.8-12.2-5.8-18.7l-21.9-70l42.2,60c3.3,4.7,3.9,5.3,4.8,6.2
	c2.2,2.1,4.7,4.6,11.2,12.9c15.8,19.9,34.4,41.3,53.8,62c28.9,30.6,54.4,53.9,73.4,70.9c113.2,100.8,202.6,155.2,203.4,155.8
	c40.1,27.4,81.2,53.6,122.7,78.2c0.1-0.2,0.1-0.4,0.1-0.6c4.6-20.9,6.4-36.1,9.3-61.2l0.6-5.5c3.4-29.2,5.1-43.8,6.4-52.3
	c1.6-11,4.7-31.4,10.3-55.4c4.2-18,7.6-28.6,10.4-37c1.8-5.6,3.4-10.4,4.9-16.3c8.2-32.7,4-59.4,0.8-81l-1-6.4
	c-3.6-24.9-14.6-151.7,2.6-182.6c1.1-2,3.9-6.9,5-14c1.2-7.3,0-13.2-0.5-16c-2.6-13.1-6-36.1-11.6-79.5l-1.9-14.7l25.2,3.3
	c-1.5-4.8-2.9-9.7-4.1-14.6c-5.3-21.7-7.3-44.1-6-66.7l0.7-11.9l27.7,2.8c-1.1-5.9-1.9-11.8-2.4-17.8c-1.2-15.4-2.3-28.6,2.3-44.1
	c2.9-9.7,6.5-15.2,10-20.5c3.3-5,6.4-9.7,9.8-19.3c2.2-6.1,3.7-12.2,5.2-21c4.4-25.2,12.9-93.6,22.1-178.5l2.8-25.8l17.1,19.5
	c19.3,22,36.4,46.1,50.8,71.6c8.5,15.2,12.1,23.8,19.3,41c4.1,10,9.6,23.1,18,42.4c10.1,23.2,15.9,35.5,22,48.4
	c6.8,14.5,13.8,29.4,27.4,60.5c8.9,20.3,17.3,39.5,28,66.2c2.3,5.8,9.4,23.4,28,73.8l0.5,1.4c17.3,46.8,25.9,70.3,32.5,90.2
	c4.6,13.7,16.5,50.6,29.3,98.2c4.5,16.7,9.4,33.8,14.7,51.8c22,75.9,46.9,162,40.9,239.1c-3.3,41.9-14.1,82.8-24.6,122.4
	c-9.3,35.1-18.9,71.4-23,107.7c-0.9,7.7-1.8,13.4-2.6,18.7c-1.4,8.7-2.5,15.6-2.7,28.3v0c-0.3,16,1,29.8,3.7,42.1
	c0.8,3.5,1.6,5.6,2.3,6.3c0.8,0.7,3.3,1.5,5,2l71.3,22.3c38.9,12.1,68.7,38.4,96.7,85.1c6.6,11.1,9.2,31.8,11.8,53.8
	c0.8,6.2,1.5,12.3,2.3,18c1.9,12.8,1.9,25.8,0,38.7l-5.1,35.5l-16.4-32c-1.8-3.6-5.2-8.7-10.9-12.2c-4.8-3-10.1-4.3-18.3-4.6
	c-19.3-0.5-35.3,5.4-47,9.8c-9.7,3.6-18.9,6.8-28.1,9.9c-10.3,3.5-21,7.2-31.3,11.1c-36.6,14.1-54.9,21.1-69.8,26.6
	c-41,15.3-61.6,23-81.5,28.2c-25.7,6.7-44.7,9.3-76.1,13.6C1159.9,1720.5,1129.4,1722.3,1099.4,1722.3z M757.8,1671.1
	c35.8,0,72.5,2.3,110.6,6.9c15.5,1.9,30.8,3.8,46,5.7c92.1,11.7,179.1,22.8,273.9,9.9c33.1-4.5,50.1-7,73.4-13
	c18.8-4.9,39-12.4,79.2-27.5c14.9-5.6,33.2-12.5,69.6-26.6c10.7-4.1,21.6-7.8,32.1-11.4c9-3.1,18-6.2,26.9-9.5
	c13.3-5,32.3-12.2,56.3-11.5c7.8,0.2,18,1.2,28.2,7.1c-0.2-2.2-0.4-4.3-0.8-6.5c-0.8-5.9-1.6-12.2-2.4-18.5
	c-2.1-16.9-4.6-37.9-8.7-44.8c-24.9-41.5-50.7-64.7-83.9-75l-71.3-22.3c-3.8-1.2-9.1-2.8-13.6-6.9c-6.4-5.8-8.3-14.2-9.2-18.2
	c-3.2-14.1-4.6-29.7-4.3-47.5l0,0c0.2-14.4,1.5-22.4,3-31.6c0.8-5,1.7-10.4,2.5-17.6c4.3-38,14.1-75.1,23.6-111
	c10.3-38.6,20.8-78.5,24-118.4c5.7-72.9-18.6-156.9-40.1-230.9c-5.3-18.2-10.2-35.3-14.8-52.2c-12.6-47-24.4-83.4-28.9-96.9
	c-6.5-19.5-15.1-42.9-32.3-89.5l-0.5-1.4c-18.5-50.1-25.5-67.4-27.7-73.2c-10.6-26.3-18.9-45.4-27.7-65.5
	c-13.5-30.8-20.4-45.6-27.2-59.9c-6.2-13.1-12-25.6-22.2-49c-8.5-19.5-14-32.7-18.2-42.8c-7.2-17.4-10.2-24.6-18-38.5
	c-9.2-16.3-19.6-32.1-31-47c-8.1,72.7-15.3,130-19.3,152.9c-1.8,10.2-3.6,17.3-6.2,24.6c-4.3,12.2-8.7,18.8-12.2,24.2
	c-3.1,4.7-5.3,8-7.2,14.5c-3.4,11.4-2.6,21.6-1.5,35.7c0.8,10,2.6,19.9,5.3,29.5l4.6,16.2l-36.2-3.6c0,16.3,1.9,32.4,5.7,48
	c2.4,9.9,5.7,19.8,9.6,29.4l7.5,18.2l-34-4.4c3.3,25.3,6.8,50.2,9.4,63c0.8,4,2.6,12.9,0.7,24.3c-1.2,7.3-3.7,14.5-7.5,21.2
	c-10.8,19.4-6.7,123.5-0.1,168.5l0.9,6.3c3.4,22.3,8.1,52.8-1.2,90c-1.7,6.7-3.4,12.1-5.3,17.9c-2.8,8.5-5.9,18.1-9.9,35.2
	c-5.4,23.1-8.2,42.2-10,53.6c-1.2,8.1-2.9,22.6-6.3,51.6l-0.6,5.4c-3,25.8-4.8,41.4-9.7,63.5c-1.5,6.9-2.9,12.6-3.9,16.2l-3.8,14.6
	l-13-7.6c-46.6-27.2-92.6-56.3-136.9-86.6c-0.4-0.2-91.3-55.6-206.3-157.9c-19.4-17.2-45.3-41-74.8-72.3
	c-12-12.8-23.5-25.5-34.3-38.2c9.8,29.2,21.7,58,44.3,96.8c12.3,21.3,25.8,42.3,40,62.5l19.4,27.6l-32.2-10.1c-1-0.3-3.3-0.8-6-1.5
	c-7.6-1.8-13.8-3.3-17.5-4.8c-2.6-1-8-3.4-13.2-5.8c18.3,36.5,42.1,68,66.9,100.9c21.6,28.6,43.9,58.2,62.8,91.8
	c17,30.2,32.2,62,46.9,92.7c26.3,54.9,53.5,111.7,91.5,160.2c11.2,14.3,23.2,28.4,35.5,41.7l10.9,11.8l-14.7,6.4
	c-39.1,17-79.3,31.3-119.3,42.3c-41.6,11.5-80.1,18.7-92.8,21.1c-38.8,7.3-58,10.9-69.9,12.2c-18.9,2-28.5,4-47.6,8
	c-10.5,2.2-19.9,4.6-28.9,11.7c-3.5,2.7-7,5.5-10.1,10.4c-1.6,2.6-2.4,4.5-3.3,7c-1.3,3.4-2.9,7.7-6.8,12.9c-3.3,4.3-6,6.4-9,8.7
	c-1.2,0.9-2.5,1.9-4.2,3.3c17.9,0.1,35.7-0.5,53.2-1.8c36.5-2.8,69.2-8.4,100.9-13.8C668.2,1674.9,712.2,1671.1,757.8,1671.1z"/>
</svg>
