<?xml version="1.0" encoding="utf-8"?>
<!-- Generator: Adobe Illustrator 26.0.2, SVG Export Plug-In . SVG Version: 6.00 Build 0)  -->
<svg version="1.1" id="Layer_1" xmlns="http://www.w3.org/2000/svg" xmlns:xlink="http://www.w3.org/1999/xlink" x="0px" y="0px"
	 viewBox="0 0 2000 2000" style="enable-background:new 0 0 2000 2000;" xml:space="preserve">
<path d="M1817.2,1522.4l-18-45.6l-16.2,27.7l-9.6-18.1c-5.4-10.1-13.7-25.5-24-44.2c-15-27.2-25-44.5-33.1-58.5
	c-3.7-6.5-7-12.1-10-17.4c-12.7-22.6-18.6-35.4-67.6-145.3c-24.5-54.9-55.1-116.4-107.8-150.6c-51-33.1-126.9-40.7-225.5-22.4
	c-57.8,10.7-111.2,29.3-158.7,55.3c-30.3,16.5-55.7,38.5-82.6,61.7c-21.9,18.9-44.6,38.5-70,54.7c-47.2,30.1-63.5,33.6-76.1,34.7
	c-9.3,0.8-14-0.1-31.3-3.5c-4.4-0.8-9.6-1.8-16-3c-12.4-2.3-23.5-4.3-33.5-6c-51.1-9-74.5-13.1-85.9-33.9
	c-23-41.8,58.9-107,160-181.7c25.1-18.5,46.7-34.5,54.3-42.5c10.7-11.3,15-19.8,13.6-26.6c-0.9-4.4-4.5-8.9-8.5-13.6
	C915,877.2,806.5,767,703.7,773.1c-6.7,0.4-15,1.4-48.6,9.8c-28.6,7.2-42.9,10.8-69.1,18.8c-30.3,9.4-47.5,12.8-69.3,17.2
	c-18.7,3.7-39.9,8-75.6,17.2c-36.1,9.3-57.2,16-75.7,21.9c-21.8,7-40.6,13-76.6,21.2c-31.7,7.2-64,13.3-95.9,17.9l-29.6,4.3
	l19.2-22.9c2.9-3.5,4.8-6.1,6-8.1c-8.4,0.3-29,4-78.1,22.3l-17.8,6.6l2.5-18.8c2-15,6.1-29.3,12.4-42.6
	c13.2-28.1,32.8-45.5,46.4-56.1c59.3-46.4,161.7-88.2,233.5-115.7l0,0c25.6-9.8,43-16.3,56.1-21.2c23.9-9,33.7-12.7,55-21.7
	c126.8-53.7,254.2-92.5,384.5-130.8c33.4-9.8,79.2-23.3,120.2-7.5c32.5,12.5,52.7,38.6,72.2,63.8c5.8,7.4,11.2,14.4,16.9,21.1
	c23.3,27.1,52.6,49.8,81,71.7c4.8,3.7,9.5,7.4,14.3,11.1c40.7,31.7,56.7,41.2,77.8,46c9.4,2.1,19.1,3.2,22.8,3.6
	c12.6,1.4,23.4,1.7,67.7-1.3l10.4-0.7c25.9-1.8,35.6-2.5,51.1,1c11,2.4,20.5,4.5,30.8,12c8.7,6.3,12.5,12.5,18.8,22.8
	c3.2,5.3,7.2,11.8,13.2,20.6c8.3,12.3,12.4,18.3,16.5,21.4c9,6.9,22.5,9.4,32.1,10.4c16.4,1.5,28.5-0.7,52.1-6.1
	c18-4.2,31.6-7.6,42.8-10.4c23-5.8,36.9-9.2,58.7-11.4c18.4-1.8,32.8-1.8,42.6,0.2c49.5,9.7,94.4,55.3,116.9,96.2
	c53.7,97.7,61.5,236.7,64.6,359.3c1.6,62.2,2.4,96.5-6.5,143c-6,31-15.1,61.5-27.2,90.9l-8.2,19.8l-10.7-16
	c-1.4,5.5-3.1,10.8-5.1,16.1c-4.8,12.7-11.2,24.6-19.2,35.6L1817.2,1522.4z M1803.1,1424.6l19.2,48.6c1.8-3.7,3.4-7.5,4.9-11.3
	c4.8-12.7,7.5-26,8.1-39.6l1.6-34.8l22.3,33.4c7.7-21.6,13.8-43.7,18.1-66.1c8.2-42.4,7.8-73,6.1-138.1
	c-2.4-92.7-6.3-247.8-61.8-348.8c-19.3-35.1-59.1-76.6-101.2-84.8c-9.5-1.9-24.8-0.9-36,0.2c-20.1,2-32.6,5.1-55.3,10.8
	c-11.3,2.8-25,6.3-43.3,10.5c-23.3,5.4-39,8.5-59.4,6.6c-18.4-1.7-33.2-6.8-43.9-15c-7.2-5.5-12.3-13-21.5-26.7
	c-6.3-9.3-10.4-16.1-13.7-21.5c-6-9.9-7.8-12.6-12.6-16.1c-6.5-4.7-12.8-6.1-22.3-8.2c-12.3-2.7-19.8-2.2-44.6-0.5l-10.5,0.7
	c-43.4,2.9-56.5,2.9-71.7,1.2c-6.3-0.7-15.8-1.8-25.4-4c-26.8-6.1-46.1-18.5-86.8-50.3c-4.7-3.7-9.4-7.3-14.2-11
	c-29.3-22.6-59.6-46-84.4-74.9c-6.1-7.1-12-14.7-17.7-22c-18.4-23.8-35.8-46.2-62.3-56.5c-31.2-12-66.3-3.5-105.6,8.1
	c-129.6,38.1-256.4,76.8-382,130c-21.7,9.2-31.7,12.9-55.8,22c-13.1,4.9-30.4,11.4-55.9,21.2l0,0C355,703,231.5,750.2,168,799.8
	c-11.7,9.2-28.6,24.1-39.8,47.8c-2.5,5.4-4.6,10.9-6.3,16.7c64.5-22.5,82.2-19.7,89.5-7c2.5,4.4,2.8,9,1.8,13.6
	c23.6-3.9,47.3-8.6,70.6-13.9c35.1-8,53.5-13.9,74.7-20.7c18.8-6,40.2-12.8,76.9-22.3c36.3-9.4,57.9-13.7,76.8-17.5
	c21.1-4.2,37.8-7.6,67-16.6c26.7-8.3,41.3-11.9,70.3-19.2c35.5-8.9,44.6-10,52.8-10.5c112.5-6.6,227.4,109,285.8,178.5
	c5.6,6.7,11.3,14.1,13.3,23.6c4.2,19.6-9,36.3-19.3,47.1c-9,9.4-30.3,25.2-57.3,45.1c-50.5,37.3-168.7,124.7-153.5,152.3
	c5.9,10.6,22.5,14.1,69.8,22.4c10,1.8,21.2,3.7,33.7,6.1c6.5,1.2,11.8,2.2,16.1,3.1c17.1,3.3,19.1,3.6,25.2,3.1
	c9.3-0.8,22.9-3.9,65.7-31.2c24-15.3,46-34.3,67.3-52.7c26.6-23,54.2-46.7,86.6-64.4c49.7-27.1,105.4-46.5,165.5-57.7
	c104.5-19.4,186-10.7,242.1,25.7c57.9,37.6,90.3,102.6,116.2,160.5c49.9,111.9,54.9,122.6,66.6,143.4c3,5.3,6.2,10.8,9.8,17.2
	c8.1,14,18.2,31.5,33.3,58.9c5.4,9.8,10.3,18.7,14.5,26.5L1803.1,1424.6z"/>
</svg>
