<?xml version="1.0" encoding="utf-8"?>
<!-- Generator: Adobe Illustrator 26.0.2, SVG Export Plug-In . SVG Version: 6.00 Build 0)  -->
<svg version="1.1" id="Layer_1" xmlns="http://www.w3.org/2000/svg" xmlns:xlink="http://www.w3.org/1999/xlink" x="0px" y="0px"
	 viewBox="0 0 2000 2000" style="enable-background:new 0 0 2000 2000;" xml:space="preserve">
<path d="M1210.3,1525.9c-22.4,0-46.3-0.8-71.6-2.5c-27.8-1.9-41.1-3.7-73.1-8.1c-18.2-2.5-42.7-5.9-79.6-10.6
	c-67.7-8.6-118.6-14.3-155.7-18.5c-34-3.8-48.5-5.3-76.9-8.1c-21.6-2.2-51.2-5.1-103.2-10.5c-32.4-3.4-58.1-6.1-79-8.2
	c-68.7-7.2-85.1-8.9-115.4-10.3c-54.1-2.4-108.5-1.8-161.7,1.7l-30.4,2l21.6-21.5c8.8-8.8,18.5-16.7,28.8-23.4
	c27.8-18.2,53.8-24.1,66.2-26.9l1.8-0.4c95.9-21.7,113.1-25.6,114.5-25.9c40.3-7.1,54.8-10.1,70.1-13.2c16.2-3.4,34.5-7.2,86-16.3
	c17.9-3.2,36-7.4,53.5-11.5c22.2-5.2,45.2-10.5,68.4-13.9l4.7-0.7c22.5-3.3,41.9-6.1,59.9-20.6c17.7-14.2,25-32.1,30.4-45.2
	c8.4-20.5,12.5-44,10.1-109.2c-1.1-29.4-2.6-43.6-3.9-55.1c-1.1-10.1-2-18-2-31.5c0-41.1,8.3-83.3,24.9-125.7
	c-6.9-3.8-15.4-8.4-25-13.8c-39.5-22.2-81.1-47.4-127.3-77.2c-28.9-18.6-41-27.1-50.7-33.8c-9.5-6.6-16.3-11.4-34.4-22.6
	c-27.4-17-45.3-26.9-70.1-40.6c-10.4-5.7-21.9-12.1-35.9-20c-76-42.7-102.5-59.3-121.9-71.4l-1-0.6c-19.4-12.1-38.8-24.7-57.7-37.3
	l-14.6-9.7l14.8-9.4c8.2-5.2,17.1-9.4,26.4-12.2c17.4-5.4,31.7-5.1,46.7-4.7c6.9,0.2,13.9,0.6,20.8,1.4l-3.4-37l14.9,2.8
	c13.3,2.5,26.8,5.7,39.9,9.5c21.2,6.1,37.6,12.6,53.4,18.9c16,6.4,27.4,11.4,36.6,15.4l1.7,0.8c6,2.6,12,5.3,18.1,7.9
	c-0.3-0.3-0.7-0.6-1-1c-16.4-15.5-32.7-31.5-48.4-47.6L564,512.4l23.8-2.3c13.7-1.3,27.5-1.3,41.1,0c14.4,1.4,28.6,4.3,42.4,8.6
	l-19.6-44.6l21.3,4c13.3,2.5,26.8,5.4,40.2,8.6c74,17.5,125.4,39,195.3,69.9c72.6,32,111.4,50.2,137.1,62.2
	c31.6,14.8,46.1,21.6,82.7,35.5c17.1,6.5,29.4,10.9,42.8,15.7c18.3,6.5,39,13.9,76.3,28.3c72.4,27.8,112.2,43.1,141.7,59.8
	c41.1,23.2,72,51.5,133.7,107.8c31.9,29.1,58,56,56.2,91.9c-0.9,18.4-9.3,33.3-11.8,37.5c-8.2,13.4-17.2,18.8-31.9,27.8
	c-6.7,4.1-14.9,9.1-25.4,16.2c-20.7,14-30.2,20.7-40.1,31.9c-8,9.1-18.9,21.5-22.7,40.3c-1,5.1-3,18.8,1.5,35.2
	c1.7,6.2,4.5,16.4,12.7,25.8c16.5,18.9,40,19.1,67.2,19.3c13.9,0.1,28.2,0.2,42.1,3.1c86.7,17.9,134.5,63,159.9,150.9
	c4.2,14.4,5.5,20.5,5.5,31l0.2,43.2l-21.5-37.4c-2.3-4-12-8.6-21.8-13c-8.1-3.7-22,0.2-33.1,3.4c-4.7,1.3-9.1,2.6-13.3,3.4
	c-18,3.4-30.3,9.7-46,17.6l-21.6,10.8c-22.6,11.3-36.2,18.2-47.2,24.4c-29.4,16.6-35,19.5-45.1,24.9c-4.7,2.5-10.4,5.5-20.1,10.7
	c-19.4,10.4-43.5,23.4-74.2,34.5c-15.7,5.7-50,16.1-103,22.6C1265.8,1524.4,1239.4,1525.9,1210.3,1525.9z M390,1424.7
	c22.3,0,44.6,0.5,66.9,1.5c31,1.4,47.5,3.1,116.8,10.4c20.9,2.2,46.6,4.9,78.9,8.2c52,5.4,81.6,8.3,103.1,10.5
	c28.5,2.8,43,4.3,76.8,8.1c37.5,4.2,88.6,9.9,156.4,18.6c37,4.7,61.6,8.1,79.8,10.6c32.3,4.4,44.4,6.1,71.5,7.9
	c56.8,3.8,106.1,3.3,146.5-1.6c50.7-6.1,83.2-16,98-21.4c29.1-10.5,52.4-23,71-33.1c9.8-5.3,15.5-8.3,20.3-10.8
	c9.9-5.2,15.4-8.1,44.5-24.5c11.5-6.5,25.3-13.4,48.2-24.9l21.5-10.8c16.6-8.3,30.9-15.5,52-19.6c3.2-0.6,7.2-1.7,11.4-2.9
	c14.7-4.1,33-9.3,48.7-2.2c2.1,0.9,4.1,1.9,6.1,2.8c-23.1-79.2-64.4-118-142.4-134.2c-11.7-2.4-24.3-2.5-37.7-2.6
	c-28.6-0.3-61-0.5-84.2-27.1c-11.7-13.3-15.5-27.3-17.5-34.8c-5.8-21.2-3.2-39.1-1.9-45.8c5.1-24.8,18.8-40.5,27.9-50.9
	c12.2-13.8,24.3-22.1,44.4-35.7c11-7.4,19.5-12.6,26.4-16.8c13.5-8.2,19-11.6,24.4-20.2c1.3-2.1,7.8-13.3,8.5-26.7
	c1.3-26-20.3-47.8-48.7-73.7c-60.5-55.2-90.8-82.9-129.6-104.9c-26.9-15.2-61.9-28.9-138.6-58.4l0,0c-37-14.2-57.6-21.6-75.8-28.1
	c-13.5-4.8-26-9.3-43.2-15.8c-37.5-14.2-53.1-21.5-84.3-36.1c-25.6-12-64.3-30.1-136.7-62C830.5,547.2,780,526,707.9,509
	c-5.9-1.4-11.8-2.7-17.7-4l25.2,57.3L688,549.6c-19.6-9-40.2-14.7-61.3-16.7c-3.7-0.4-7.3-0.6-11-0.7c9.7,9.6,19.5,19.1,29.3,28.4
	c16.2,15.3,32.8,30.6,49.5,45.3l51.1,45.2l-63.1-26c-27.4-11.3-54.2-22.7-79.6-33.9l-1.7-0.8c-9-4-20.3-8.9-35.9-15.1
	c-16-6.4-31.2-12.4-51.3-18.2c-7.5-2.2-15.2-4.2-22.9-5.9l3.3,35.8l-14.8-2.6c-10.6-1.9-21.4-3-32-3.2c-13.7-0.3-25.6-0.6-39.4,3.7
	c-1.4,0.4-2.8,0.9-4.3,1.5c13.4,8.8,27.1,17.6,40.7,26.1l1,0.6c19.2,12,45.4,28.4,120.9,70.9c13.9,7.8,25.4,14.2,35.8,19.9
	c25,13.8,43.1,23.8,71.1,41.2c18.6,11.6,26.1,16.8,35.5,23.3c9.5,6.7,21.4,14.9,50,33.4C804.7,831,846,856,885,878
	c14.1,7.9,25.8,14.3,33.6,18.5l9.1,4.9l-4,9.6c-17.9,42.8-27,85.4-27,126.5c0,12.2,0.8,19.2,1.9,29c1.3,11.8,2.9,26.5,4,56.7
	c2.5,69.4-2.2,95.2-11.8,118.7c-5.6,13.7-15,36.5-37.2,54.4c-22.8,18.3-46.2,21.8-70.9,25.4l-4.6,0.7c-22.2,3.3-44.8,8.5-66.6,13.6
	c-17.8,4.1-36.3,8.4-54.7,11.7c-51.2,9.1-69.4,12.9-85.4,16.2c-15.5,3.2-30.2,6.3-70.8,13.4c-2.2,0.5-41.7,9.4-113.3,25.7l-1.8,0.4
	c-11.8,2.7-33.5,7.6-57.3,22.8C348.6,1425.2,369.3,1424.7,390,1424.7z"/>
</svg>
